<svg width="24" height="25" viewBox="0 0 24 25" fill="none" xmlns="http://www.w3.org/2000/svg">
<path d="M13.3 17.775C13.1 17.575 13.004 17.3334 13.012 17.05C13.02 16.7667 13.1243 16.525 13.325 16.325L16.15 13.5H5C4.71667 13.5 4.479 13.404 4.287 13.212C4.095 13.02 3.99934 12.7827 4 12.5C4 12.2167 4.096 11.979 4.288 11.787C4.48 11.595 4.71734 11.4994 5 11.5H16.15L13.3 8.65005C13.1 8.45005 13 8.21238 13 7.93705C13 7.66172 13.1 7.42438 13.3 7.22505C13.5 7.02505 13.7377 6.92505 14.013 6.92505C14.2883 6.92505 14.5257 7.02505 14.725 7.22505L19.3 11.8C19.4 11.9 19.471 12.0084 19.513 12.125C19.555 12.2417 19.5757 12.3667 19.575 12.5C19.575 12.6334 19.554 12.7584 19.512 12.875C19.47 12.9917 19.3993 13.1 19.3 13.2L14.7 17.8C14.5167 17.9834 14.2877 18.075 14.013 18.075C13.7383 18.075 13.5007 17.975 13.3 17.775Z" fill="#E61428"/>
</svg>
